<svg width="411" height="419" viewBox="0 0 411 419" fill="none" xmlns="http://www.w3.org/2000/svg">
<path d="M375.762 291.839L297.855 222.171L283.82 237.819L361.727 307.487L375.762 291.839ZM339.685 327.262L279.708 241.695L262.735 253.772L322.576 339.573L339.685 327.262ZM293.674 354.45L257.486 256.367L238.018 263.565L274.205 361.648L293.674 354.45ZM223.908 371.361L244.665 368.969L232.706 265.186L211.95 267.578L223.908 371.361ZM401.453 251.67L310.981 199.436L300.561 217.484L391.034 269.718L401.453 251.67Z" fill="#1389FF"/>
<path d="M265.696 6.56883L234.929 106.451L255.008 112.668L285.775 12.7861L265.696 6.56883ZM312.948 24.5561L260.247 114.787L278.308 125.165L331.279 34.9597L312.948 24.5561ZM356.866 55.0084L282.858 128.85L297.529 143.534L371.537 69.6923L356.866 55.0084ZM401.367 111.337L390.525 93.4759L301.22 147.683L312.061 165.544L401.367 111.337ZM218.468 -4.24435e-05L208.789 104.019L229.539 105.95L239.218 1.93066L218.468 -4.24435e-05Z" fill="#1389FF"/>
<path d="M68.8602 253.079L169.459 224.742L163.789 204.501L63.1907 232.838L68.8602 253.079ZM58.3374 203.626L162.727 198.951L161.648 178.148L57.1333 182.583L58.3374 203.626ZM60.0949 150.212L162.275 172.327L166.652 152.037L64.4719 129.922L60.0949 150.212ZM83.2744 82.2713L74.1511 101.068L168.135 146.685L177.259 127.888L83.2744 82.2713ZM88.9619 296.317L181.596 248.02L171.961 229.541L79.3275 277.839L88.9619 296.317Z" fill="#1389FF"/>
<circle cx="232" cy="185.317" r="45" transform="rotate(-90 232 185.317)" fill="white"/>
</svg>
