<svg width="1146" height="128" viewBox="0 0 1146 128" fill="none" xmlns="http://www.w3.org/2000/svg">
<path d="M198.7 101.745C193.494 101.745 188.654 100.792 184.18 98.8854C179.78 96.9787 175.967 94.3387 172.74 90.9654C169.587 87.5187 167.277 83.5221 165.81 78.9754L178.24 73.5854C180.22 78.2787 183.08 81.9821 186.82 84.6954C190.56 87.3354 194.777 88.6554 199.47 88.6554C202.11 88.6554 204.384 88.2521 206.29 87.4454C208.27 86.5654 209.774 85.3921 210.8 83.9254C211.9 82.4587 212.45 80.6987 212.45 78.6454C212.45 76.2254 211.717 74.2454 210.25 72.7054C208.857 71.0921 206.73 69.8454 203.87 68.9654L188.14 63.9054C181.76 61.9254 176.957 58.9554 173.73 54.9954C170.504 51.0354 168.89 46.3787 168.89 41.0254C168.89 36.3321 170.027 32.1887 172.3 28.5954C174.647 25.0021 177.874 22.2154 181.98 20.2354C186.16 18.1821 190.927 17.1554 196.28 17.1554C201.194 17.1554 205.704 18.0354 209.81 19.7954C213.917 21.4821 217.437 23.8654 220.37 26.9454C223.377 29.9521 225.614 33.5087 227.08 37.6154L214.76 43.1154C213.147 39.0087 210.727 35.8554 207.5 33.6554C204.274 31.3821 200.534 30.2454 196.28 30.2454C193.787 30.2454 191.587 30.6854 189.68 31.5654C187.774 32.3721 186.27 33.5454 185.17 35.0854C184.144 36.5521 183.63 38.3121 183.63 40.3654C183.63 42.6387 184.364 44.6554 185.83 46.4154C187.297 48.1021 189.534 49.4221 192.54 50.3754L207.61 55.1054C214.137 57.2321 219.014 60.1654 222.24 63.9054C225.54 67.6454 227.19 72.2654 227.19 77.7654C227.19 82.4587 225.98 86.6021 223.56 90.1954C221.14 93.7887 217.804 96.6121 213.55 98.6654C209.297 100.719 204.347 101.745 198.7 101.745ZM263.131 101.085C256.384 101.085 251.141 99.2521 247.401 95.5854C243.734 91.8454 241.901 86.6021 241.901 79.8554V53.4554H231.561V40.5854H232.661C235.594 40.5854 237.868 39.8154 239.481 38.2754C241.094 36.7354 241.901 34.4987 241.901 31.5654V26.9454H256.311V40.5854H270.061V53.4554H256.311V79.0854C256.311 81.0654 256.641 82.7521 257.301 84.1454C258.034 85.5387 259.134 86.6021 260.601 87.3354C262.141 88.0687 264.084 88.4354 266.431 88.4354C266.944 88.4354 267.531 88.3987 268.191 88.3254C268.924 88.2521 269.621 88.1787 270.281 88.1054V100.425C269.254 100.572 268.081 100.719 266.761 100.865C265.441 101.012 264.231 101.085 263.131 101.085ZM295.626 101.745C291.446 101.745 287.816 101.049 284.736 99.6554C281.656 98.2621 279.272 96.2821 277.586 93.7154C275.899 91.0754 275.056 88.0321 275.056 84.5854C275.056 81.2854 275.789 78.3521 277.256 75.7854C278.722 73.1454 280.996 70.9454 284.076 69.1854C287.156 67.4254 291.042 66.1787 295.736 65.4454L315.316 62.2554V73.2554L298.486 76.1154C295.626 76.6287 293.499 77.5454 292.106 78.8654C290.712 80.1854 290.016 81.9087 290.016 84.0354C290.016 86.0887 290.786 87.7387 292.326 88.9854C293.939 90.1587 295.919 90.7454 298.266 90.7454C301.272 90.7454 303.912 90.1221 306.186 88.8754C308.532 87.5554 310.329 85.7587 311.576 83.4854C312.896 81.2121 313.556 78.7187 313.556 76.0054V60.6054C313.556 58.0387 312.529 55.9121 310.476 54.2254C308.496 52.4654 305.856 51.5854 302.556 51.5854C299.476 51.5854 296.726 52.4287 294.306 54.1154C291.959 55.7287 290.236 57.8921 289.136 60.6054L277.366 54.8854C278.539 51.7321 280.372 49.0187 282.866 46.7454C285.432 44.3987 288.439 42.5654 291.886 41.2454C295.332 39.9254 299.072 39.2654 303.106 39.2654C308.019 39.2654 312.346 40.1821 316.086 42.0154C319.826 43.7754 322.722 46.2687 324.776 49.4954C326.902 52.6487 327.966 56.3521 327.966 60.6054V100.425H314.326V90.1954L317.406 89.9754C315.866 92.5421 314.032 94.7054 311.906 96.4654C309.779 98.1521 307.359 99.4721 304.646 100.425C301.932 101.305 298.926 101.745 295.626 101.745ZM366.504 101.745C360.564 101.745 355.211 100.389 350.444 97.6754C345.751 94.8887 342.047 91.1487 339.334 86.4554C336.621 81.6887 335.264 76.3354 335.264 70.3954C335.264 64.4554 336.621 59.1387 339.334 54.4454C342.047 49.7521 345.751 46.0487 350.444 43.3354C355.211 40.6221 360.564 39.2654 366.504 39.2654C370.757 39.2654 374.717 40.0354 378.384 41.5754C382.051 43.0421 385.204 45.0954 387.844 47.7354C390.557 50.3021 392.501 53.3821 393.674 56.9754L381.024 62.4754C379.924 59.4687 378.054 57.0487 375.414 55.2154C372.847 53.3821 369.877 52.4654 366.504 52.4654C363.351 52.4654 360.527 53.2354 358.034 54.7754C355.614 56.3154 353.707 58.4421 352.314 61.1554C350.921 63.8687 350.224 66.9854 350.224 70.5054C350.224 74.0254 350.921 77.1421 352.314 79.8554C353.707 82.5687 355.614 84.6954 358.034 86.2354C360.527 87.7754 363.351 88.5454 366.504 88.5454C369.951 88.5454 372.957 87.6287 375.524 85.7954C378.091 83.9621 379.924 81.5054 381.024 78.4254L393.674 84.1454C392.501 87.5187 390.594 90.5621 387.954 93.2754C385.314 95.9154 382.161 98.0054 378.494 99.5454C374.827 101.012 370.831 101.745 366.504 101.745ZM401.008 100.425V17.1554H415.418V71.7154L409.918 70.0654L438.078 40.5854H456.008L433.898 64.6754L456.448 100.425H439.948L420.368 69.4054L428.948 67.6454L410.908 87.0054L415.418 78.2054V100.425H401.008ZM972.44 100.425V89.0954L994.66 65.8854C999.06 61.2654 1002.43 57.5987 1004.78 54.8854C1007.2 52.0987 1008.89 49.7154 1009.84 47.7354C1010.79 45.7554 1011.27 43.7387 1011.27 41.6854C1011.27 38.2387 1010.17 35.5254 1007.97 33.5454C1005.84 31.5654 1003.09 30.5754 999.72 30.5754C996.2 30.5754 993.157 31.6021 990.59 33.6554C988.023 35.6354 986.153 38.5687 984.98 42.4554L971.89 38.3854C972.77 34.0587 974.567 30.3187 977.28 27.1654C979.993 23.9387 983.293 21.4821 987.18 19.7954C991.14 18.0354 995.32 17.1554 999.72 17.1554C1005 17.1554 1009.62 18.1087 1013.58 20.0154C1017.61 21.9221 1020.73 24.5987 1022.93 28.0454C1025.2 31.4921 1026.34 35.5254 1026.34 40.1454C1026.34 43.0787 1025.79 45.9754 1024.69 48.8354C1023.59 51.6954 1021.94 54.6287 1019.74 57.6354C1017.54 60.5687 1014.68 63.8687 1011.16 67.5354L991.91 87.7754H1027.44V100.425H972.44ZM1042.94 100.425V85.0254H1057.46V100.425H1042.94ZM1106.33 101.745C1099.8 101.745 1094.08 99.9854 1089.17 96.4654C1084.25 92.9454 1080.4 87.9954 1077.62 81.6154C1074.9 75.2354 1073.55 67.8287 1073.55 59.3954C1073.55 50.8887 1074.9 43.4821 1077.62 37.1754C1080.33 30.8687 1084.14 25.9554 1089.06 22.4354C1093.97 18.9154 1099.69 17.1554 1106.22 17.1554C1112.89 17.1554 1118.65 18.9154 1123.49 22.4354C1128.4 25.9554 1132.25 30.9054 1135.04 37.2854C1137.82 43.5921 1139.22 50.9621 1139.22 59.3954C1139.22 67.8287 1137.82 75.2354 1135.04 81.6154C1132.32 87.9221 1128.51 92.8721 1123.6 96.4654C1118.68 99.9854 1112.93 101.745 1106.33 101.745ZM1106.44 88.1054C1110.18 88.1054 1113.37 86.9687 1116.01 84.6954C1118.65 82.3487 1120.66 79.0487 1122.06 74.7954C1123.52 70.4687 1124.26 65.3354 1124.26 59.3954C1124.26 53.4554 1123.52 48.3587 1122.06 44.1054C1120.66 39.7787 1118.61 36.4787 1115.9 34.2054C1113.26 31.9321 1110.03 30.7954 1106.22 30.7954C1102.55 30.7954 1099.4 31.9321 1096.76 34.2054C1094.12 36.4787 1092.06 39.7787 1090.6 44.1054C1089.2 48.3587 1088.51 53.4554 1088.51 59.3954C1088.51 65.2621 1089.2 70.3587 1090.6 74.6854C1092.06 78.9387 1094.12 82.2387 1096.76 84.5854C1099.47 86.9321 1102.7 88.1054 1106.44 88.1054Z" fill="white"/>
<path d="M518.425 101.745C512.412 101.745 506.802 100.682 501.595 98.5554C496.388 96.4287 491.842 93.4587 487.955 89.6454C484.068 85.8321 481.025 81.3587 478.825 76.2254C476.698 71.0187 475.635 65.4087 475.635 59.3954C475.635 53.3087 476.698 47.6987 478.825 42.5654C480.952 37.4321 483.958 32.9587 487.845 29.1454C491.732 25.3321 496.278 22.3987 501.485 20.3454C506.692 18.2187 512.338 17.1554 518.425 17.1554C524.512 17.1554 530.158 18.2187 535.365 20.3454C540.572 22.4721 545.118 25.4421 549.005 29.2554C552.892 32.9954 555.898 37.4321 558.025 42.5654C560.225 47.6987 561.325 53.3087 561.325 59.3954C561.325 65.4087 560.225 71.0187 558.025 76.2254C555.825 81.3587 552.782 85.8321 548.895 89.6454C545.008 93.4587 540.462 96.4287 535.255 98.5554C530.122 100.682 524.512 101.745 518.425 101.745ZM518.425 88.1054C522.458 88.1054 526.162 87.4087 529.535 86.0154C532.908 84.5487 535.842 82.5321 538.335 79.9654C540.902 77.3987 542.845 74.3554 544.165 70.8354C545.558 67.3154 546.255 63.5021 546.255 59.3954C546.255 55.2887 545.558 51.5121 544.165 48.0654C542.845 44.5454 540.902 41.5021 538.335 38.9354C535.842 36.2954 532.908 34.2787 529.535 32.8854C526.162 31.4921 522.458 30.7954 518.425 30.7954C514.465 30.7954 510.798 31.4921 507.425 32.8854C504.052 34.2787 501.082 36.2954 498.515 38.9354C496.022 41.5021 494.078 44.5454 492.685 48.0654C491.292 51.5121 490.595 55.2887 490.595 59.3954C490.595 63.5021 491.292 67.3154 492.685 70.8354C494.078 74.3554 496.022 77.3987 498.515 79.9654C501.082 82.5321 504.052 84.5487 507.425 86.0154C510.798 87.4087 514.465 88.1054 518.425 88.1054ZM587.857 100.425L564.317 40.5854H580.047L597.097 87.6654H591.267L608.427 40.5854H624.157L600.617 100.425H587.857ZM655.828 101.745C649.668 101.745 644.278 100.352 639.658 97.5654C635.038 94.7787 631.444 91.0021 628.878 86.2354C626.311 81.4687 625.028 76.1887 625.028 70.3954C625.028 64.3821 626.311 59.0654 628.878 54.4454C631.518 49.7521 635.074 46.0487 639.548 43.3354C644.094 40.6221 649.154 39.2654 654.728 39.2654C659.421 39.2654 663.528 40.0354 667.048 41.5754C670.641 43.1154 673.684 45.2421 676.178 47.9554C678.671 50.6687 680.578 53.7854 681.898 57.3054C683.218 60.7521 683.878 64.4921 683.878 68.5254C683.878 69.5521 683.804 70.6154 683.658 71.7154C683.584 72.8154 683.401 73.7687 683.108 74.5754H636.908V63.5754L674.968 63.5754L668.148 68.7454C668.808 65.3721 668.624 62.3654 667.598 59.7254C666.644 57.0854 665.031 54.9954 662.758 53.4554C660.558 51.9154 657.881 51.1454 654.728 51.1454C651.721 51.1454 649.044 51.9154 646.698 53.4554C644.351 54.9221 642.554 57.1221 641.308 60.0554C640.134 62.9154 639.694 66.3987 639.988 70.5054C639.694 74.1721 640.171 77.4354 641.418 80.2954C642.738 83.0821 644.644 85.2454 647.138 86.7854C649.704 88.3254 652.638 89.0954 655.938 89.0954C659.238 89.0954 662.024 88.3987 664.298 87.0054C666.644 85.6121 668.478 83.7421 669.798 81.3954L681.458 87.1154C680.284 89.9754 678.451 92.5054 675.958 94.7054C673.464 96.9054 670.494 98.6287 667.048 99.8754C663.674 101.122 659.934 101.745 655.828 101.745ZM691.201 100.425V40.5854H704.731V53.8954L703.631 51.9154C705.025 47.4421 707.188 44.3254 710.121 42.5654C713.128 40.8054 716.721 39.9254 720.901 39.9254H724.421V52.6854H719.251C715.145 52.6854 711.845 53.9687 709.351 56.5354C706.858 59.0287 705.611 62.5487 705.611 67.0954V100.425H691.201ZM735.674 100.425V53.4554H725.114V40.5854H735.674V38.6054C735.674 34.0587 736.591 30.2087 738.424 27.0554C740.331 23.8287 742.971 21.3721 746.344 19.6854C749.717 17.9987 753.714 17.1554 758.334 17.1554C759.214 17.1554 760.167 17.2287 761.194 17.3754C762.294 17.4487 763.211 17.5587 763.944 17.7054V30.1354C763.211 29.9887 762.514 29.9154 761.854 29.9154C761.267 29.8421 760.717 29.8054 760.204 29.8054C756.977 29.8054 754.484 30.5387 752.724 32.0054C750.964 33.3987 750.084 35.5987 750.084 38.6054V40.5854H776.264V53.4554H750.084V100.425H735.674ZM773.294 100.425V17.1554H787.814V100.425H773.294ZM826.806 101.745C820.94 101.745 815.586 100.389 810.746 97.6754C805.98 94.9621 802.166 91.2587 799.306 86.5654C796.52 81.8721 795.126 76.5187 795.126 70.5054C795.126 64.4921 796.52 59.1387 799.306 54.4454C802.166 49.7521 805.98 46.0487 810.746 43.3354C815.513 40.6221 820.866 39.2654 826.806 39.2654C832.673 39.2654 837.99 40.6221 842.756 43.3354C847.523 46.0487 851.3 49.7521 854.086 54.4454C856.946 59.0654 858.376 64.4187 858.376 70.5054C858.376 76.5187 856.946 81.8721 854.086 86.5654C851.226 91.2587 847.413 94.9621 842.646 97.6754C837.88 100.389 832.6 101.745 826.806 101.745ZM826.806 88.5454C830.033 88.5454 832.856 87.7754 835.276 86.2354C837.77 84.6954 839.713 82.5687 841.106 79.8554C842.573 77.0687 843.306 73.9521 843.306 70.5054C843.306 66.9854 842.573 63.9054 841.106 61.2654C839.713 58.5521 837.77 56.4254 835.276 54.8854C832.856 53.2721 830.033 52.4654 826.806 52.4654C823.506 52.4654 820.61 53.2721 818.116 54.8854C815.623 56.4254 813.643 58.5521 812.176 61.2654C810.783 63.9054 810.086 66.9854 810.086 70.5054C810.086 73.9521 810.783 77.0687 812.176 79.8554C813.643 82.5687 815.623 84.6954 818.116 86.2354C820.61 87.7754 823.506 88.5454 826.806 88.5454ZM879.7 100.425L859.13 40.5854H874.31L889.38 86.0154L884.1 85.9054L900.16 40.5854H912.92L928.87 85.9054L923.59 86.0154L938.66 40.5854H953.84L933.27 100.425H920.4L904.12 53.0154H908.96L892.46 100.425H879.7Z" fill="#1389FF"/>
<path d="M114.365 88.823L90.6539 67.6191L86.3824 72.3817L110.094 93.5856L114.365 88.823ZM103.385 99.6042L85.1307 73.5613L79.9649 77.2369L98.178 103.351L103.385 99.6042ZM89.3814 107.879L78.3675 78.0267L72.4421 80.2174L83.456 110.07L89.3814 107.879ZM68.1478 113.026L74.4652 112.298L70.8256 80.7109L64.5082 81.4388L68.1478 113.026ZM122.185 76.5973L94.6489 60.6995L91.4776 66.1924L119.013 82.0902L122.185 76.5973Z" fill="#1389FF"/>
<path d="M80.866 1.99928L71.502 32.3991L77.6132 34.2913L86.9773 3.89155L80.866 1.99928ZM95.2476 7.47382L79.2078 34.9361L84.7048 38.0948L100.827 10.6402L95.2476 7.47382ZM108.614 16.7421L86.0895 39.2164L90.5546 43.6855L113.08 21.2113L108.614 16.7421ZM122.158 33.8861L118.859 28.4499L91.678 44.9483L94.9777 50.3844L122.158 33.8861ZM66.492 6.07708e-06L63.5462 31.6588L69.8616 32.2464L72.8073 0.587627L66.492 6.07708e-06Z" fill="#1389FF"/>
<path d="M20.958 77.0261L51.5758 68.4014L49.8502 62.2411L19.2325 70.8657L20.958 77.0261ZM17.7553 61.9747L49.5268 60.5518L49.1984 54.2203L17.3888 55.5702L17.7553 61.9747ZM18.2902 45.7178L49.3894 52.4486L50.7216 46.2732L19.6224 39.5425L18.2902 45.7178ZM25.3451 25.0398L22.5683 30.7607L51.1729 44.6445L53.9497 38.9235L25.3451 25.0398ZM27.0761 90.1859L55.2697 75.4864L52.3374 69.8623L24.1438 84.5618L27.0761 90.1859Z" fill="#1389FF"/>
<circle cx="70.6106" cy="56.4024" r="13.696" transform="rotate(-90 70.6106 56.4024)" fill="white"/>
</svg>
